<svg width="32" height="32" viewBox="0 0 32 32" fill="none" xmlns="http://www.w3.org/2000/svg">
<path d="M22.0312 20.617L26.3142 24.899L24.8992 26.314L20.6172 22.031C19.024 23.3082 17.0422 24.0029 15.0002 24C10.0322 24 6.00024 19.968 6.00024 15C6.00024 10.032 10.0322 6 15.0002 6C19.9682 6 24.0002 10.032 24.0002 15C24.0031 17.042 23.3085 19.0237 22.0312 20.617ZM20.0252 19.875C21.2944 18.5699 22.0031 16.8204 22.0002 15C22.0002 11.132 18.8672 8 15.0002 8C11.1322 8 8.00024 11.132 8.00024 15C8.00024 18.867 11.1322 22 15.0002 22C16.8207 22.0029 18.5701 21.2941 19.8752 20.025L20.0252 19.875Z" fill="#484A69"/>
</svg>
