<svg width="40" height="40" viewBox="0 0 40 40" fill="none" xmlns="http://www.w3.org/2000/svg">
<rect width="40" height="40" rx="20" fill="white"/>
<path d="M20.9174 16.2772L13.8514 20.9879C13.8012 21.0213 13.7429 21.0404 13.6826 21.0433C13.6224 21.0462 13.5625 21.0327 13.5094 21.0042C13.4562 20.9758 13.4118 20.9334 13.3808 20.8817C13.3498 20.83 13.3334 20.7708 13.3334 20.7105V11.2892C13.3334 11.2289 13.3498 11.1698 13.3808 11.118C13.4118 11.0663 13.4562 11.024 13.5094 10.9955C13.5625 10.9671 13.6224 10.9536 13.6826 10.9564C13.7429 10.9593 13.8012 10.9785 13.8514 11.0119L20.9174 15.7225C20.963 15.753 21.0005 15.7942 21.0263 15.8426C21.0522 15.891 21.0658 15.945 21.0658 15.9999C21.0658 16.0548 21.0522 16.1088 21.0263 16.1572C21.0005 16.2055 20.963 16.2468 20.9174 16.2772Z" fill="#22223D"/>
</svg>
